PathFileType	4	(X/Y/Z)	C:\Users\Graham\Documents\MATLAB\MOtoNMS_v2_2\MyData\ElaboratedData\S8\22-05-17\staticElaborations\Static1\Static1\\Static1.trc
DataRate	CameraRate	NumFrames	NumMarkers	Units	OrigDataRate	DataStartFrame
100	100	4	38	mm	100	2
Frame#	Time	V_Sacral			R_ASIS			L_ASIS			R_Knee_Lat			R_Knee_Med			R_Thigh_Upper			R_Thigh_Front			R_Thigh_Rear			L_Knee_Lat			L_Knee_Med			L_Thigh_Upper			L_Thigh_Front			L_Thigh_Rear			R_Ankle_Lat			R_Ankle_Med			R_Shank_Upper			R_Shank_Front			R_Shank_Rear			L_Ankle_Lat			L_Ankle_Med			L_Shank_Upper			L_Shank_Front			L_Shank_Rear			R_Heel			R_MTP1			R_MTP5			L_Heel			L_MTP1			L_MTP5			Clavicle			R_Acromium			L_Acromium			LAJC			RAJC			LHJC			RHJC			LKJC			RKJC		
		X1	Y1	Z1	X2	Y2	Z2	X3	Y3	Z3	X4	Y4	Z4	X5	Y5	Z5	X6	Y6	Z6	X7	Y7	Z7	X8	Y8	Z8	X9	Y9	Z9	X10	Y10	Z10	X11	Y11	Z11	X12	Y12	Z12	X13	Y13	Z13	X14	Y14	Z14	X15	Y15	Z15	X16	Y16	Z16	X17	Y17	Z17	X18	Y18	Z18	X19	Y19	Z19	X20	Y20	Z20	X21	Y21	Z21	X22	Y22	Z22	X23	Y23	Z23	X24	Y24	Z24	X25	Y25	Z25	X26	Y26	Z26	X27	Y27	Z27	X28	Y28	Z28	X29	Y29	Z29	X30	Y30	Z30	X31	Y31	Z31	X32	Y32	Z32	X33	Y33	Z33	X34	Y34	Z34	X35	Y35	Z35	X36	Y36	Z36	X37	Y37	Z37	X38	Y38	Z38	

83	0.820000	-245.921580	1018.060892	-11.774638	-46.247914	992.987832	134.694139	-22.532395	993.285084	-95.780927	-129.793869	526.293425	176.800332	-144.821693	528.601823	40.428901	-13.544908	818.147144	137.404640	-28.227177	704.125894	88.813560	-46.014102	703.944382	160.296770	-109.161204	537.097684	-144.028626	-146.260760	530.792843	-9.648310	4.634094	811.151958	-63.512889	-19.967487	688.900760	-38.004608	-15.195141	696.066649	-113.378136	-182.989717	92.386638	141.899051	-171.243413	100.628258	66.107926	-111.300302	333.020097	129.490098	-145.622777	225.453413	84.267964	-140.432012	219.026152	157.004399	-177.697565	88.407462	-113.592019	-164.470564	99.794301	-36.344890	-109.259009	327.467979	-97.281214	-140.830708	220.812413	-53.809500	-127.671154	210.659106	-126.859527	-241.143694	51.543133	95.676560	-28.185493	63.822088	82.287109	-47.246948	51.580609	158.283641	-238.593616	57.821114	-74.804768	-26.683372	66.228311	-59.958886	-42.829421	52.327110	-135.041673	-72.260267	1389.863770	21.078647	-160.066929	1438.265398	174.327453	-142.231623	1448.672339	-161.135296	-171.084064	94.100881	-74.968454	-177.116565	96.507448	104.003489	-95.902203	920.509105	-71.167302	-113.048870	920.294188	95.469546	-127.710982	533.945263	-76.838468	-137.307781	527.447624	108.614616	
84	0.830000	-245.913774	1018.061598	-11.800737	-46.248855	992.987241	134.678078	-22.514979	993.278892	-95.793804	-129.807806	526.295161	176.798949	-144.829432	528.598399	40.424744	-13.559984	818.144756	137.401717	-28.235840	704.120798	88.816657	-45.955566	703.983444	160.338076	-109.166853	537.093667	-144.047678	-146.278060	530.793190	-9.669662	4.731098	811.201213	-63.496644	-19.970520	688.893744	-38.017086	-15.197105	696.058833	-113.389553	-182.991298	92.385057	141.898697	-171.245268	100.626447	66.107799	-111.310097	333.020283	129.489131	-145.626254	225.453768	84.267810	-140.437529	219.026957	157.007144	-177.698216	88.407201	-113.597407	-164.474254	99.794522	-36.346317	-109.269654	327.467468	-97.292525	-140.841521	220.812844	-53.816978	-127.670514	210.663021	-126.882671	-241.143080	51.540696	95.676046	-28.186853	63.821443	82.286699	-47.246390	51.579590	158.283638	-238.594362	57.818719	-74.806282	-26.684238	66.228760	-59.958903	-42.828927	52.328594	-135.041710	-72.244725	1389.874535	21.045424	-160.077238	1438.263315	174.286380	-142.230051	1448.663825	-161.173745	-171.086235	94.100862	-74.971862	-177.118283	96.505752	104.003248	-95.888843	920.505465	-71.184729	-113.048791	920.294596	95.449897	-127.722456	533.943429	-76.858670	-137.318619	527.446780	108.611847	
85	0.840000	-245.905078	1018.063099	-11.826342	-46.249555	992.985827	134.662579	-22.497150	993.272228	-95.805565	-129.823715	526.296420	176.797822	-144.839164	528.595135	40.421713	-13.575953	818.141594	137.398207	-28.247563	704.115178	88.818331	-45.908033	704.015606	160.373638	-109.173876	537.089421	-144.067090	-146.297137	530.793431	-9.691566	4.860464	811.269810	-63.472145	-19.974259	688.886177	-38.030240	-15.200204	696.050678	-113.401237	-182.992856	92.383340	141.898761	-171.246653	100.624363	66.107894	-111.320909	333.020864	129.488505	-145.631399	225.454198	84.267613	-140.443097	219.028274	157.010880	-177.699587	88.406686	-113.602764	-164.478008	99.794826	-36.347722	-109.281154	327.466973	-97.304208	-140.853012	220.813337	-53.824428	-127.671936	210.665039	-126.901549	-241.142565	51.538276	95.675596	-28.188273	63.821073	82.286085	-47.245374	51.578888	158.283446	-238.593886	57.815869	-74.807638	-26.685444	66.229189	-59.958863	-42.828192	52.330299	-135.042110	-72.228344	1389.885469	21.013418	-160.088182	1438.261487	174.245825	-142.226187	1448.653323	-161.211732	-171.088797	94.100756	-74.975243	-177.119755	96.503852	104.003328	-95.875472	920.501937	-71.201354	-113.048829	920.294864	95.430684	-127.735507	533.941426	-76.879328	-137.331440	527.445778	108.609767	
86	0.850000	-245.895828	1018.065289	-11.851373	-46.249990	992.983916	134.647584	-22.479231	993.265296	-95.816448	-129.840951	526.297233	176.795980	-144.849836	528.592171	40.418936	-13.591656	818.138231	137.393746	-28.261600	704.109546	88.817807	-45.875727	704.038995	160.399476	-109.181652	537.085008	-144.086320	-146.317239	530.793531	-9.713628	5.016877	811.354997	-63.440957	-19.978370	688.878268	-38.043610	-15.203978	696.042343	-113.412993	-182.994291	92.381635	141.899153	-171.247473	100.622193	66.108107	-111.332008	333.021839	129.487677	-145.637730	225.454668	84.267025	-140.448504	219.030109	157.014843	-177.701524	88.405964	-113.607930	-164.481661	99.795252	-36.349122	-109.292881	327.466459	-97.315931	-140.864633	220.813754	-53.831664	-127.675079	210.665130	-126.915750	-241.142303	51.536036	95.675198	-28.189602	63.821059	82.285364	-47.244007	51.578530	158.283085	-238.592311	57.812728	-74.808725	-26.686970	66.229557	-59.958810	-42.827314	52.332063	-135.042789	-72.211183	1389.896658	20.982818	-160.099442	1438.260549	174.205839	-142.220102	1448.640977	-161.249259	-171.091593	94.100608	-74.978526	-177.120882	96.501914	104.003630	-95.862284	920.498578	-71.217227	-113.048926	920.295135	95.411977	-127.749446	533.939270	-76.899974	-137.345394	527.444702	108.607458	
